<!--?xml version="1.0" standalone="no"?-->

<svg version="1.0" xmlns="http://www.w3.org/2000/svg" width="245.000000pt" height="300.000000pt" viewBox="0 0 245.000000 300.000000" preserveAspectRatio="xMidYMid meet">
<g transform="translate(0.000000,300.000000) scale(0.100000,-0.100000)" fill="#077CB2" stroke="none">
<path class="node" id="node1" d="M1078 2990 c-62 -11 -159 -64 -208 -113 -123 -123 -149 -328 -60
-478 51 -86 116 -142 203 -174 336 -124 652 216 503 541 -74 160 -261 256
-438 224z"></path>
<path class="node" id="node2" d="M1280 2193 c-41 -20 -131 -70 -200 -111 -217 -130 -356 -181 -560
-202 -132 -13 -125 -14 -139 14 -17 32 -52 46 -110 46 -43 0 -52 -4 -80 -35
-40 -45 -44 -104 -13 -157 39 -67 161 -67 206 1 18 26 25 28 130 39 192 21
349 68 495 150 54 30 63 32 57 16 -98 -254 -149 -588 -117 -755 15 -73 49
-155 86 -202 l25 -34 -47 -18 c-66 -24 -187 -90 -253 -138 -87 -63 -270 -254
-332 -347 -31 -47 -71 -114 -88 -150 l-32 -65 -91 0 c-102 -1 -156 -20 -196
-71 -94 -120 170 -232 332 -141 62 35 81 86 51 142 -15 28 -14 32 25 110 53
107 146 232 246 330 173 170 424 301 520 273 42 -13 195 -13 226 0 63 26 340
-63 502 -161 107 -65 154 -103 247 -196 104 -105 167 -201 132 -201 -81 0
-217 -111 -238 -194 -7 -31 20 -80 53 -95 110 -50 333 83 333 199 0 66 -133
281 -237 382 -135 132 -366 264 -558 319 -38 12 -78 23 -87 26 -15 5 -14 10
11 47 46 66 89 159 110 235 11 39 22 75 25 79 6 11 31 133 47 232 6 41 14 130
16 197 6 147 -17 248 -73 325 -18 26 -31 48 -26 48 88 -1 472 -38 472 -45 0
-14 -61 -146 -91 -195 -63 -105 -72 -114 -97 -101 -31 17 -97 -5 -128 -42 -26
-31 -33 -97 -13 -139 26 -57 103 -81 163 -53 49 23 67 53 69 113 2 37 10 61
38 103 89 135 159 297 159 368 0 36 13 33 -240 55 -270 25 -446 36 -555 36
-94 0 -104 -2 -175 -37z"></path>
</g>
<g transform="translate(0.000000,300.000000) scale(0.100000,-0.100000)" fill="#FFFFFF" stroke="none">



</g>
</svg>